<svg xmlns="http://www.w3.org/2000/svg" viewBox="0 0 1024 1024">
  <defs>
    <linearGradient id="g" x1="0" y1="0" x2="1" y2="1">
      <stop offset="0" stop-color="#3A5A40"/>
      <stop offset="1" stop-color="#2F4A35"/>
    </linearGradient>
  </defs>
  <rect width="1024" height="1024" rx="208" fill="url(#g)"/>
  <g transform="translate(512 512) scale(0.66) translate(-512 -512)">
    <path fill="#E08A5F" d="M512 660 C 438 590, 322 540, 322 442 C 322 376, 374 332, 432 332 C 474 332, 500 360, 512 392 C 524 360, 550 332, 592 332 C 650 332, 702 376, 702 442 C 702 540, 586 590, 512 660 Z"/>
    <g fill="none" stroke="#F3E7D4" stroke-linecap="round" stroke-linejoin="round" stroke-width="66">
      <path d="M 196 612 C 300 812, 724 812, 828 612"/>
      <path d="M 286 632 C 360 760, 664 760, 738 632"/>
    </g>
    <g fill="none" stroke="#F3E7D4" stroke-linecap="round" stroke-width="40">
      <path d="M 214 624 l -44 -10"/>
      <path d="M 810 624 l 44 -10"/>
    </g>
  </g>
</svg>
